{
	"asset":{
		"generator":"Khronos glTF Blender I/O v5.1.19",
		"version":"2.0"
	},
	"scene":0,
	"scenes":[
		{
			"name":"Scene",
			"nodes":[
				0,
				1,
				2,
				3,
				4
			]
		}
	],
	"nodes":[
		{
			"mesh":0,
			"name":"Cone",
			"rotation":[
				-0.06879150867462158,
				0,
				0.3095617890357971,
				0.9483876824378967
			],
			"translation":[
				-2.998105764389038,
				4.294622421264648,
				-3.634706974029541
			]
		},
		{
			"mesh":1,
			"name":"Torus",
			"rotation":[
				0,
				0,
				-0.44063618779182434,
				0.8976857662200928
			],
			"translation":[
				6.236144065856934,
				-3.6288270950317383,
				-2.0522825717926025
			]
		},
		{
			"mesh":2,
			"name":"Cube.001",
			"translation":[
				-6.663547992706299,
				0,
				1.1775827407836914
			]
		},
		{
			"mesh":3,
			"name":"Sphere.001",
			"translation":[
				-4.6212334632873535,
				1.9199137687683105,
				3.805631160736084
			]
		},
		{
			"mesh":4,
			"name":"Sphere.002",
			"translation":[
				3.6624743938446045,
				-3.3545894622802734,
				2.8740744590759277
			]
		}
	],
	"materials":[
		{
			"doubleSided":true,
			"name":"Material.001",
			"pbrMetallicRoughness":{
				"baseColorFactor":[
					0.800000011920929,
					0.800000011920929,
					0.800000011920929,
					1
				],
				"metallicFactor":0,
				"roughnessFactor":0.5
			}
		}
	],
	"meshes":[
		{
			"name":"Cone",
			"primitives":[
				{
					"attributes":{
						"POSITION":0,
						"NORMAL":1,
						"TEXCOORD_0":2
					},
					"indices":3
				}
			]
		},
		{
			"name":"Torus",
			"primitives":[
				{
					"attributes":{
						"POSITION":4,
						"NORMAL":5,
						"TEXCOORD_0":6
					},
					"indices":7
				}
			]
		},
		{
			"name":"Cube.001",
			"primitives":[
				{
					"attributes":{
						"POSITION":8,
						"NORMAL":9,
						"TEXCOORD_0":10
					},
					"indices":11,
					"material":0
				}
			]
		},
		{
			"name":"Sphere.001",
			"primitives":[
				{
					"attributes":{
						"POSITION":12,
						"NORMAL":13,
						"TEXCOORD_0":14
					},
					"indices":15
				}
			]
		},
		{
			"name":"Sphere.002",
			"primitives":[
				{
					"attributes":{
						"POSITION":16,
						"NORMAL":17,
						"TEXCOORD_0":18
					},
					"indices":15
				}
			]
		}
	],
	"accessors":[
		{
			"bufferView":0,
			"componentType":5126,
			"count":128,
			"max":[
				1,
				1,
				1
			],
			"min":[
				-1,
				-1,
				-1
			],
			"type":"VEC3"
		},
		{
			"bufferView":1,
			"componentType":5126,
			"count":128,
			"type":"VEC3"
		},
		{
			"bufferView":2,
			"componentType":5126,
			"count":128,
			"type":"VEC2"
		},
		{
			"bufferView":3,
			"componentType":5123,
			"count":186,
			"type":"SCALAR"
		},
		{
			"bufferView":4,
			"componentType":5126,
			"count":2304,
			"max":[
				1.25,
				0.25,
				1.25
			],
			"min":[
				-1.25,
				-0.25,
				-1.25
			],
			"type":"VEC3"
		},
		{
			"bufferView":5,
			"componentType":5126,
			"count":2304,
			"type":"VEC3"
		},
		{
			"bufferView":6,
			"componentType":5126,
			"count":2304,
			"type":"VEC2"
		},
		{
			"bufferView":7,
			"componentType":5123,
			"count":3456,
			"type":"SCALAR"
		},
		{
			"bufferView":8,
			"componentType":5126,
			"count":24,
			"max":[
				1,
				1,
				1
			],
			"min":[
				-1,
				-1,
				-1
			],
			"type":"VEC3"
		},
		{
			"bufferView":9,
			"componentType":5126,
			"count":24,
			"type":"VEC3"
		},
		{
			"bufferView":10,
			"componentType":5126,
			"count":24,
			"type":"VEC2"
		},
		{
			"bufferView":11,
			"componentType":5123,
			"count":36,
			"type":"SCALAR"
		},
		{
			"bufferView":12,
			"componentType":5126,
			"count":1984,
			"max":[
				0.9999997019767761,
				1,
				0.9999993443489075
			],
			"min":[
				-0.9999990463256836,
				-1,
				-1
			],
			"type":"VEC3"
		},
		{
			"bufferView":13,
			"componentType":5126,
			"count":1984,
			"type":"VEC3"
		},
		{
			"bufferView":14,
			"componentType":5126,
			"count":1984,
			"type":"VEC2"
		},
		{
			"bufferView":15,
			"componentType":5123,
			"count":2880,
			"type":"SCALAR"
		},
		{
			"bufferView":16,
			"componentType":5126,
			"count":1984,
			"max":[
				0.9999997019767761,
				1,
				0.9999993443489075
			],
			"min":[
				-0.9999990463256836,
				-1,
				-1
			],
			"type":"VEC3"
		},
		{
			"bufferView":17,
			"componentType":5126,
			"count":1984,
			"type":"VEC3"
		},
		{
			"bufferView":18,
			"componentType":5126,
			"count":1984,
			"type":"VEC2"
		}
	],
	"bufferViews":[
		{
			"buffer":0,
			"byteLength":1536,
			"byteOffset":0,
			"target":34962
		},
		{
			"buffer":0,
			"byteLength":1536,
			"byteOffset":1536,
			"target":34962
		},
		{
			"buffer":0,
			"byteLength":1024,
			"byteOffset":3072,
			"target":34962
		},
		{
			"buffer":0,
			"byteLength":372,
			"byteOffset":4096,
			"target":34963
		},
		{
			"buffer":0,
			"byteLength":27648,
			"byteOffset":4468,
			"target":34962
		},
		{
			"buffer":0,
			"byteLength":27648,
			"byteOffset":32116,
			"target":34962
		},
		{
			"buffer":0,
			"byteLength":18432,
			"byteOffset":59764,
			"target":34962
		},
		{
			"buffer":0,
			"byteLength":6912,
			"byteOffset":78196,
			"target":34963
		},
		{
			"buffer":0,
			"byteLength":288,
			"byteOffset":85108,
			"target":34962
		},
		{
			"buffer":0,
			"byteLength":288,
			"byteOffset":85396,
			"target":34962
		},
		{
			"buffer":0,
			"byteLength":192,
			"byteOffset":85684,
			"target":34962
		},
		{
			"buffer":0,
			"byteLength":72,
			"byteOffset":85876,
			"target":34963
		},
		{
			"buffer":0,
			"byteLength":23808,
			"byteOffset":85948,
			"target":34962
		},
		{
			"buffer":0,
			"byteLength":23808,
			"byteOffset":109756,
			"target":34962
		},
		{
			"buffer":0,
			"byteLength":15872,
			"byteOffset":133564,
			"target":34962
		},
		{
			"buffer":0,
			"byteLength":5760,
			"byteOffset":149436,
			"target":34963
		},
		{
			"buffer":0,
			"byteLength":23808,
			"byteOffset":155196,
			"target":34962
		},
		{
			"buffer":0,
			"byteLength":23808,
			"byteOffset":179004,
			"target":34962
		},
		{
			"buffer":0,
			"byteLength":15872,
			"byteOffset":202812,
			"target":34962
		}
	],
	"buffers":[
		{
			"byteLength":218684,
			"uri":"bvhDemo.bin"
		}
	]
}
